<svg width="102" height="102" class="warped-text" viewBox="0 0 102 102" fill="none" xmlns="http://www.w3.org/2000/svg">
<path d="M25.7515 83L26.7582 83.731C26.6911 83.8771 26.4898 84.2426 26.4227 84.4619C27.0267 84.0233 27.6308 84.1695 28.1677 84.6081C29.3758 85.4852 29.1745 86.7278 28.1677 88.2628L25.5501 92.4293C24.6105 93.8912 23.4695 94.549 22.06 93.4526C20.3821 92.1369 21.0532 90.675 21.6573 89.7247L21.8587 89.4324L22.9997 90.3095L22.7983 90.675C22.5298 91.1135 22.1942 91.6983 22.7983 92.1369C23.2681 92.5024 23.6708 92.2831 24.1407 91.5521L27.0267 87.0202C27.4965 86.2893 27.4965 85.7776 27.0938 85.4852C26.5569 85.0467 26.0871 85.4852 25.5501 86.3624L24.7447 87.6781L25.483 88.1897L24.7447 89.3593L22.7983 87.8974L25.7515 83Z" fill="#E9ECEF"/>
<path d="M18.9716 83.4014L20.6738 84.898L22.8723 82.585L20.8865 80.8844L22.0213 80L25 82.585L17.9787 90L15 87.415L15.9929 86.3265L17.766 87.8912L19.6099 85.9864L17.9078 84.4898L18.9716 83.4014Z" fill="#E9ECEF"/>
<path d="M13.9155 83.8015L14.8662 85.0382L13.8521 86L11 82.3588L12.0141 81.3969L12.9648 82.6336L19.0493 77L20 78.1679L13.9155 83.8015Z" fill="#E9ECEF"/>
<path d="M13.1373 73.7779L13.6939 73.4136C14.32 73.0493 14.5982 72.6121 14.32 72.0293C14.0417 71.4464 13.4156 71.665 12.8591 71.9564C11.8852 72.5393 11.746 72.9036 11.5373 74.3608C11.3286 75.818 11.1199 76.6195 9.86774 77.421C8.68512 78.1496 7.2938 78.441 6.38945 76.7652C5.41552 75.0894 6.45901 74.0694 7.43294 73.4865L7.9199 73.195L8.68512 74.5794L8.26773 74.8708C7.64163 75.2351 7.36337 75.5994 7.57207 76.0366C7.85033 76.4738 8.26773 76.4009 8.89382 76.0366C9.51991 75.6723 9.72861 75.3809 9.86774 74.2151C10.0764 72.2478 10.4243 71.4464 11.8852 70.572C13.1373 69.8434 14.5982 69.552 15.5722 71.3007C16.5461 73.0493 15.7113 74.0694 14.5287 74.798L13.9721 75.0894L13.1373 73.7779Z" fill="#E9ECEF"/>
<path d="M5.66013 70.9L6.30719 72.44L4.94118 73L3 68.45L4.36601 67.89L5.01307 69.43L13.3529 66L14 67.47L5.66013 70.9Z" fill="#E9ECEF"/>
<path d="M9.84713 63.8526L12.5796 63.4737L13 64.8632L2.63057 66L2 64.0421L11.3885 60L11.879 61.4526L9.35669 62.4632L9.84713 63.8526ZM8.02548 63.0316C6.41401 63.6632 4.87261 64.2947 3.82166 64.6737V64.7368C4.66242 64.5474 6.8344 64.2947 8.3758 64.1053L8.02548 63.0316Z" fill="#E9ECEF"/>
<path d="M6.03476 57.7241L10.7809 57.1034L11 58.6207L0.339341 60L0.0472677 57.8621C-0.171787 56.3448 0.339341 55.3793 2.23781 55.1034L2.67592 55.0345C4.28232 54.8276 4.79345 55.3793 5.01251 55.7931C5.23156 55.1724 5.59665 54.7586 7.05702 54.5517C7.93324 54.4138 9.68567 54.2069 10.3428 54L10.5619 55.5172C9.90473 55.7241 8.22531 55.931 7.42211 56.069C6.10778 56.2759 5.88872 56.4138 5.96174 57.3103L6.03476 57.7241ZM4.72043 57.8621L4.64742 57.5172C4.50138 56.6897 4.13629 56.4138 2.968 56.6207L2.60291 56.6897C1.7997 56.8276 1.28858 57.0345 1.43461 57.931L1.50763 58.3448L4.72043 57.8621Z" fill="#E9ECEF"/>
<path d="M1.4966 52.2857V54H0.0680272L0 49H1.42857V50.7143L10 50.5714V52.2143L1.4966 52.2857Z" fill="#E9ECEF"/>
<path d="M6.22368 43.6944L5.93421 45.9167L9.26316 46.2639L9.55263 43.6944L11 44.0417L10.5658 48L0 46.8889L0.434211 43L2.02632 43.1389L1.73684 45.5L4.48684 45.7778L4.77632 43.5556L6.22368 43.6944Z" fill="#E9ECEF"/>
<path d="M1 40.7493L1.57516 38.8737C2.15031 36.9981 3.37252 36.748 5.31367 37.1856L9.26787 38.0609C10.8495 38.3735 12.5031 38.9987 11.8561 41.1244L11.2809 43L1 40.7493ZM10.3463 41.312L10.4901 40.8743C10.7777 39.999 10.1306 39.6864 9.05219 39.4364L4.81041 38.4986C3.87578 38.311 3.22873 38.311 2.94115 39.1863L2.79736 39.6239L10.3463 41.312Z" fill="#E9ECEF"/>
<path d="M12.908 35L4 30.4651L4.74233 28.8605C6.15951 29.1395 11.0859 30.2558 11.6258 30.3953C10.4785 29.907 9.2638 29.2791 7.77914 28.5116L5.48466 27.3256L6.09202 26L15 30.5349L14.2577 32.1395C13.0429 31.8605 7.57669 30.6744 7.17178 30.5349C8.25153 31.0233 9.46626 31.6512 11.0859 32.4186L13.5153 33.6744L12.908 35Z" fill="#E9ECEF"/>
<path d="M12.4121 21.6927L16.4899 24.305C18.1353 25.3767 18.4215 26.5154 17.4199 27.922C16.4183 29.2616 15.2021 29.3286 13.6282 28.2569L9.4789 25.6446C7.83347 24.5729 7.61885 23.3002 8.54888 22.0946C9.4789 20.8219 10.7666 20.621 12.4121 21.6927ZM10.3374 24.305L14.7014 27.1182C15.4168 27.5871 15.9175 27.5871 16.2752 27.1182C16.6329 26.6493 16.4899 26.1805 15.7029 25.7116L11.339 22.8983C10.6236 22.4295 10.1228 22.4295 9.76506 22.8983C9.40736 23.3672 9.55044 23.8361 10.3374 24.305Z" fill="#E9ECEF"/>
<path d="M19.7 24L12 18.2722L13.1 17.1657C14.7176 18.4675 17.1765 20.4201 18.5353 21.6568C17.2412 20.0947 15.4294 17.7515 14.1353 16.1243L15.1059 15.0828C16.8529 16.3846 19.0529 18.0118 20.6706 19.3136C19.4412 17.9467 17.5 15.6686 16.1412 14.0414L17.1765 13L23 20.6805L21.9647 21.787C20.2176 20.4852 18.1471 18.9882 16.5941 17.7515C17.8882 19.3136 19.4412 21.3965 20.7353 23.0888L19.7 24Z" fill="#E9ECEF"/>
<path d="M33 14.1712L31.8937 14.7962C31.7462 14.6573 31.5249 14.3795 31.3774 14.1712C31.4512 14.9351 31.0824 15.4212 30.4187 15.699C29.0174 16.4629 27.9848 15.699 27.0998 14.2406L24.5922 10.0738C23.7072 8.61546 23.7072 7.22653 25.3297 6.39318C27.3211 5.35149 28.3536 6.60152 28.9436 7.57377L29.0911 7.85155L27.6161 8.61546L27.3948 8.26823C27.0998 7.7821 26.731 7.29598 26.0673 7.64321C25.551 7.921 25.551 8.40712 25.9198 9.10158L28.6486 13.6156C29.0911 14.31 29.5336 14.5878 30.0499 14.31C30.7137 13.9628 30.5662 13.4072 29.9761 12.5044L29.1649 11.185L28.3536 11.6016L27.6161 10.4211L29.9024 9.17103L33 14.1712Z" fill="#E9ECEF"/>
<path d="M36 8.25478L33.7778 9.09554L35.037 12.1083L37.6296 11.1274L38 12.5287L34.0741 14L30 4.47134L33.9259 3L34.5185 4.40127L32.1481 5.3121L33.1852 7.76433L35.4074 6.92357L36 8.25478Z" fill="#E9ECEF"/>
<path d="M37.7073 3.28571L36.3049 3.71429L36 2.28571L40.1463 1L40.4512 2.42857L39.0488 2.85714L41 11.5714L39.6585 12L37.7073 3.28571Z" fill="#E9ECEF"/>
<path d="M46.7698 7.73838L46.8395 8.38838C46.9091 9.18284 47.1879 9.61617 47.7454 9.54395C48.3726 9.47173 48.4423 8.89394 48.4423 8.17171C48.3726 7.01615 48.0939 6.72725 46.9091 5.86058C45.7244 5.06612 45.0972 4.48834 45.0275 2.97166C44.8881 1.59942 45.2366 0.154959 47.0485 0.0105128C48.9302 -0.133933 49.3483 1.2383 49.418 2.39387V2.97166L47.8848 3.1161L47.8151 2.61054C47.7454 1.88831 47.606 1.45497 47.1182 1.45497C46.6304 1.45497 46.491 1.96053 46.5607 2.68276C46.6304 3.40499 46.7698 3.76611 47.7454 4.41612C49.3483 5.49946 49.9058 6.14947 49.9755 7.88282C50.1149 9.3995 49.6967 10.844 47.7454 10.9884C45.8638 11.1329 45.3063 9.90507 45.2366 8.53283L45.1669 7.88282L46.7698 7.73838Z" fill="#E9ECEF"/>
<path d="M52.6901 1.46667L51 1.4L51.0704 0L56 0.266667L55.9296 1.66667L54.2394 1.6L53.7465 10L52.1268 9.93333L52.6901 1.46667Z" fill="#E9ECEF"/>
<path d="M57.625 7.94805L56.725 10.4156L55 10.1558L58.6 1L61 1.32468L60.925 11L59.2 10.7403L59.275 8.14286L57.625 7.94805ZM59.35 6.84416C59.425 5.22078 59.5 3.66234 59.575 2.55844H59.5C59.275 3.33766 58.6 5.28571 58.075 6.64935L59.35 6.84416Z" fill="#E9ECEF"/>
<path d="M63.9181 7.73913L62.5286 12.0435L61 11.5652L64.1266 2L66.211 2.68323C67.67 3.16149 68.3648 3.98137 67.809 5.75776L67.67 6.09938C67.1837 7.60248 66.4889 7.73913 66.0025 7.80745C66.4889 8.21739 66.6973 8.76397 66.2805 10.0621C66.0025 10.882 65.5162 12.3851 65.4467 13L63.9876 12.5217C64.0571 11.9068 64.6129 10.3354 64.8214 9.65217C65.1688 8.49068 65.1688 8.14907 64.2655 7.87578L63.9181 7.73913ZM64.335 6.50932L64.6824 6.64596C65.4467 6.91925 65.8636 6.71429 66.211 5.62112L66.3499 5.2795C66.5584 4.52795 66.5584 4.04969 65.7246 3.7764L65.3077 3.63975L64.335 6.50932Z" fill="#E9ECEF"/>
<path d="M71.6 6.08497L70.2 5.36601L70.8 4L75 6.15686L74.4 7.52288L73 6.80392L69.3333 15L68 14.281L71.6 6.08497Z" fill="#E9ECEF"/>
<path d="M76.8819 13.8839L74.9685 12.6774L73.1968 15.4452L75.3937 16.8645L74.4016 18L71 15.8L76.5984 7L80 9.12903L79.2205 10.4065L77.1654 9.12903L75.748 11.4L77.6614 12.6065L76.8819 13.8839Z" fill="#E9ECEF"/>
<path d="M81.9943 10L83.7801 11.397C85.5658 12.794 85.1938 13.9814 83.9289 15.4482L81.2502 18.4518C80.2085 19.6392 78.7948 20.8266 76.7858 19.2201L75 17.8231L81.9943 10ZM77.1578 17.8231L77.6043 18.1724C78.4227 18.8709 79.018 18.4518 79.7621 17.6136L82.6639 14.3307C83.3336 13.6322 83.5568 13.0035 82.7384 12.3749L82.3663 12.0256L77.1578 17.8231Z" fill="#E9ECEF"/>
<path d="M84.4459 28L83.6452 26.9603C83.7907 26.8117 84.0819 26.5147 84.2275 26.3661C83.4996 26.5889 82.9172 26.2176 82.4805 25.6977C81.5342 24.4352 82.0437 23.3212 83.4996 22.1329L87.4303 18.9394C88.8134 17.8254 90.1964 17.5283 91.3611 19.0137C92.7441 20.7961 91.5794 22.0586 90.7059 22.8013L90.4148 23.0241L89.3957 21.6873L89.7596 21.3902C90.1964 21.0189 90.6331 20.5733 90.1964 19.9791C89.8324 19.5335 89.3229 19.5335 88.6678 20.1277L84.3731 23.6182C83.7179 24.1381 83.4996 24.658 83.8635 25.1036C84.3003 25.6977 84.8826 25.4006 85.7561 24.7322L86.9936 23.7668L86.4112 23.0241L87.5031 22.1329L89.1045 24.2124L84.4459 28Z" fill="#E9ECEF"/>
<path d="M91.1032 29.3871L89.8968 27.3548L87.0581 29.0968L88.4065 31.4194L87.0581 32L85 28.4435L93.9419 23L96 26.5565L94.7226 27.3548L93.5161 25.25L91.1742 26.629L92.3806 28.6613L91.1032 29.3871Z" fill="#E9ECEF"/>
<path d="M96.25 30.1L95.5987 28.56L96.9737 28L99 32.48L97.625 33.04L96.9737 31.5L88.6513 35L88 33.53L96.25 30.1Z" fill="#E9ECEF"/>
<path d="M93.1672 40.633L92.5095 40.7763C91.7057 40.9196 91.3403 41.2778 91.4864 41.8509C91.6326 42.4956 92.2903 42.4956 92.948 42.3523C94.0441 42.0658 94.3365 41.7792 94.9942 40.4897C95.6519 39.2003 96.0172 38.4839 97.625 38.1257C99.0134 37.8391 100.475 37.9108 100.913 39.7734C101.352 41.636 100.037 42.2807 98.9404 42.4956L98.3557 42.6389L97.9903 41.0629L98.5019 40.9196C99.2327 40.7763 99.6711 40.5614 99.525 39.9883C99.3788 39.4868 98.9404 39.4152 98.2096 39.6301C97.4788 39.7734 97.1134 39.9883 96.6749 41.0629C95.8711 42.8538 95.2865 43.4985 93.5326 43.8567C92.071 44.2149 90.5364 44 90.0979 42.0658C89.6595 40.2032 90.7556 39.4152 92.1441 39.1286L92.7287 38.9854L93.1672 40.633Z" fill="#E9ECEF"/>
<path d="M100.106 44.7361L99.9603 43.1389L101.49 43L102 47.8611L100.47 48L100.325 46.3333L91.1457 47.1667L91 45.5694L100.106 44.7361Z" fill="#E9ECEF"/>
<path d="M94.7027 50.8125L92.0676 50.4375V49L102 50.625L101.932 52.625L92 54V52.5L94.6351 52.1875L94.7027 50.8125ZM96.1216 52.0625C97.8108 51.875 99.4324 51.6875 100.514 51.625V51.5625C99.7027 51.5 97.5405 51.1875 96.1216 51V52.0625Z" fill="#E9ECEF"/>
<path d="M96.1474 57.2922L91.5641 56.5759L91.7756 55L102 56.5759L101.647 58.7965C101.436 60.3724 100.66 61.2319 98.8269 60.9454L98.4039 60.8738C96.8526 60.6589 96.5 59.9426 96.4295 59.5128C96.0769 60.0858 95.5833 60.3724 94.1731 60.1575C93.3269 60.0142 91.6346 59.7277 91 59.7277L91.2115 58.1518C91.8462 58.0802 93.5385 58.4383 94.2436 58.5099C95.5128 58.7248 95.7949 58.5816 95.9359 57.6504L96.1474 57.2922ZM97.4872 57.5071L97.4167 57.8653C97.2756 58.7248 97.5577 59.083 98.6859 59.2263L99.0385 59.2979C99.8141 59.4411 100.308 59.2979 100.449 58.4383L100.519 58.0085L97.4872 57.5071Z" fill="#E9ECEF"/>
<path d="M99.0714 64.5517L99.5714 62.9655L101 63.3793L99.5714 68L98.1429 67.5862L98.6429 66L90 63.5172L90.4286 62L99.0714 64.5517Z" fill="#E9ECEF"/>
<path d="M91.7089 70.8559L92.6962 68.964L89.5063 67.8288L88.3671 69.973L87 69.2793L88.7468 66L99 69.7207L97.2532 73L95.8101 72.4955L96.8734 70.5405L94.2152 69.5946L93.2278 71.4865L91.7089 70.8559Z" fill="#E9ECEF"/>
<path d="M96 75.5133L94.9206 77.472C93.8412 79.4307 92.6269 79.2856 91.0752 78.27L87.8371 76.1662C86.5553 75.2957 85.2735 74.135 86.4878 71.9587L87.5672 70L96 75.5133ZM87.8371 72.1038L87.5672 72.539C87.0275 73.4821 87.4997 73.9899 88.3768 74.5703L91.8848 76.8917C92.6943 77.3995 93.234 77.5445 93.7737 76.674L94.0436 76.2388L87.8371 72.1038Z" fill="#E9ECEF"/>
<path d="M85.41 78.1633L84.9378 77.7688C84.3981 77.3085 83.9259 77.2427 83.5211 77.6373C83.1163 78.0975 83.4536 78.5578 83.9933 78.9523C84.8028 79.6098 85.2076 79.6098 86.5568 79.3468C87.906 79.0838 88.6481 78.9523 89.7949 79.8728C90.8068 80.6619 91.5489 81.7797 90.4695 83.1605C89.3227 84.5412 88.1084 83.9495 87.2989 83.292L86.8941 82.9632L87.8385 81.8454L88.2433 82.1742C88.783 82.5687 89.1877 82.7659 89.525 82.3714C89.8624 81.9769 89.5925 81.6481 89.0528 81.2536C88.5131 80.7934 88.1759 80.7276 87.0965 80.9906C85.3425 81.4509 84.533 81.3851 83.2512 80.3989C82.1719 79.5441 81.4298 78.3605 82.5766 76.914C83.7235 75.5332 84.9378 75.9277 85.9497 76.7167L86.4219 77.1112L85.41 78.1633Z" fill="#E9ECEF"/>
<path d="M85.6471 86.5942L86.8971 85.4348L88 86.5217L84.25 90L83.1471 88.913L84.3971 87.7536L78 81.1594L79.1765 80L85.6471 86.5942Z" fill="#E9ECEF"/>
<path d="M77.4662 85.245L76.1128 82.9272L77.3308 82L82 90.7417L80.2406 92L73 85.245L74.2857 84.3179L76.1805 86.1722L77.4662 85.245ZM77.1955 87.1656C78.4135 88.3576 79.5639 89.4834 80.3083 90.2782H80.3759C79.9023 89.6159 78.8872 87.7616 78.1429 86.5033L77.1955 87.1656Z" fill="#E9ECEF"/>
<path d="M73.8837 90.5192L71.6512 86.731L73.0465 86L78 94.5732L76.1163 95.57C74.7209 96.3011 73.6744 96.1682 72.7674 94.6396L72.5581 94.3073C71.7907 92.9782 72.1395 92.38 72.4186 92.0477C71.7907 92.1142 71.2326 91.9148 70.6047 90.7186C70.186 89.9875 69.4186 88.5919 69 88.1267L70.3256 87.3956C70.7442 87.8608 71.5116 89.2565 71.9302 89.8546C72.5581 90.9179 72.8372 91.0509 73.6046 90.6521L73.8837 90.5192ZM74.5116 91.5825L74.1628 91.7819C73.4651 92.1807 73.3256 92.5794 73.8837 93.5098L74.0233 93.7757C74.4419 94.4403 74.7907 94.7725 75.5581 94.3738L75.9767 94.1744L74.5116 91.5825Z" fill="#E9ECEF"/>
<path d="M69.8351 96.6623L71.4227 96.0779L72 97.3766L67.3093 99L66.732 97.7013L68.3196 97.1169L65 89.5195L66.5155 89L69.8351 96.6623Z" fill="#E9ECEF"/>
<path d="M60.1868 95.5705L62.2308 95.0064L61.5055 91.8333L59.1319 92.4679L59 90.9872L62.6264 90L65 100.013L61.3736 101L61.044 99.5897L63.2198 99.0256L62.6264 96.4167L60.5824 96.9808L60.1868 95.5705Z" fill="#E9ECEF"/>
<path d="M59 101.663L56.7613 101.955C54.5225 102.248 53.8726 101.079 53.5837 99.1071L53.0782 95.017C52.8616 93.4102 52.9338 91.5843 55.4614 91.2922L57.7001 91L59 101.663ZM56.328 92.6068L55.8225 92.6798C54.7392 92.8259 54.667 93.5563 54.8114 94.6518L55.3169 99.1071C55.4614 100.057 55.678 100.714 56.7613 100.568L57.2668 100.495L56.328 92.6068Z" fill="#E9ECEF"/>
<path d="M44.732 91L46.16 91.0723C46.16 91.2892 46.16 91.6506 46.16 91.8675C46.5567 91.2169 47.2707 91 47.9847 91.0723C49.73 91.2169 50.1267 92.3736 49.968 94.1809L49.492 99.1691C49.3334 100.904 48.4607 102.133 46.4774 101.988C44.018 101.772 43.9387 100.181 44.018 99.0245V98.663L45.8427 98.8076V99.2413C45.7633 99.8197 45.8427 100.47 46.636 100.543C47.2707 100.615 47.588 100.181 47.6674 99.3859L48.1434 93.964C48.2227 93.0965 47.9847 92.6627 47.35 92.5904C46.5567 92.5181 46.3187 93.0965 46.2394 94.1809L46.0807 95.699L47.112 95.7713L46.9534 97.1449L44.1767 96.928L44.732 91Z" fill="#E9ECEF"/>
<path d="M39.2414 94.6538L41.4483 95.1474L42.1379 91.9744L39.6552 91.4103L40.1379 90L44 90.8462L41.7931 101L38 100.154L38.3448 98.6731L40.6207 99.1667L41.1724 96.5577L38.9655 96.0641L39.2414 94.6538Z" fill="#E9ECEF"/>
<path d="M34.8387 98.0129L36.4946 98.5806L35.9677 100L31 98.2968L31.5269 96.8774L33.1828 97.4452L36.4194 89L38 89.5677L34.8387 98.0129Z" fill="#E9ECEF"/>
</svg>
