<?xml version="1.0" encoding="utf-8"?>
<!-- Generator: Adobe Illustrator 25.0.1, SVG Export Plug-In . SVG Version: 6.00 Build 0)  -->
<svg version="1.0" id="katman_1" xmlns="http://www.w3.org/2000/svg" xmlns:xlink="http://www.w3.org/1999/xlink" x="0px" y="0px"
	 viewBox="0 0 800 600" style="enable-background:new 0 0 800 600;" xml:space="preserve">
<style type="text/css">
	.st0{fill-rule:evenodd;clip-rule:evenodd;}
</style>
<path class="st0" d="M186.2,378.3c45.7,0,82.8-35.1,82.8-78.3s-37.1-78.3-82.8-78.3c-45.7,0-82.8,35.1-82.8,78.3
	S140.5,378.3,186.2,378.3z M196.9,272.2l27.9-15.4v22.8l0,9.2c0,8.2-4.6,15.8-12.1,19.9l-25.4,14v1v22.8L159.4,331
	c-7.5-4.1-12.1-11.7-12.1-19.9v-9.5l0-22.4l27.9,15.4c4.3,2.3,7.6,5.8,9.7,9.9l0-2.8v-9.5C184.8,283.9,189.4,276.3,196.9,272.2z"/>
<path d="M303.5,335.1v-72.2h14.6l31.9,45.9c1.7,2.8,2.8,4.6,3.3,5.7v-51.6h14v72.2h-14.6l-31.9-46.2c-1.7-2.8-2.8-4.6-3.3-5.7v51.9
	H303.5z M428.3,335.1h-14c-1.7-2.1-2.6-4.8-2.6-8.1c-3.8,6.4-9.8,9.6-18.1,9.6c-5.4,0-9.8-1.4-13.2-4.3c-3.3-3-5-6.8-5-11.7
	c0-4.9,1.8-8.7,5.3-11.4c3.6-2.8,8.3-4.6,14-5.5l16.3-2.4v-2c0-5.2-3.3-7.7-9.9-7.7c-3.1,0-5.5,0.5-7.2,1.6
	c-1.7,1.1-2.5,2.5-2.5,4.1c0,0.4,0.1,0.8,0.2,1.2l-12.3,3.9c-0.7-1.4-1-2.8-1-4.3c0-4.2,2.1-7.8,6.2-10.9c4.1-3.2,9.7-4.7,16.6-4.7
	c7.7,0,13.6,1.5,17.6,4.6c4.1,3.1,6.1,7.7,6.1,13.9v21.4C424.6,327.6,425.8,331.8,428.3,335.1z M396.8,326c4.1,0,7.5-1.3,10.1-3.8
	c2.6-2.6,3.9-6.3,3.9-11v-0.9l-13.1,2.1c-6,1-9.1,3.5-9.1,7.5c0,2,0.7,3.5,2.2,4.6C392.4,325.5,394.3,326,396.8,326z M447.6,296.5
	c0,3.2,4.3,5.6,12.8,7.2c6.3,1.2,10.9,3.1,13.8,5.7c2.9,2.5,4.4,5.8,4.4,10.1c0,5-1.9,9-5.8,12.3c-3.9,3.2-9.1,4.7-15.6,4.7
	c-6.3,0-11.5-1.4-15.6-4.3c-4.1-2.9-7.1-6.6-9.2-11l11-6.6c1.2,3.4,3,6.1,5.3,8c2.4,2,5.3,3,8.6,3c2.3,0,4.2-0.5,5.9-1.4
	c1.7-1,2.6-2.4,2.6-4.2c0-1.7-0.9-3-2.7-3.9c-1.8-1-4.8-1.9-8.8-2.7c-12.6-2.3-18.9-7.7-18.9-16c0-4.6,2-8.2,5.9-10.8
	c3.9-2.7,8.7-4,14.3-4c5.7,0,10.3,1,13.8,3.1c3.5,2.1,6.4,5.3,8.6,9.8L468,301c-2.5-6-6.5-9-12.2-9
	C450.3,292,447.6,293.5,447.6,296.5z M526.6,315l11.1,6.8c-5.2,9.8-13.7,14.8-25.3,14.8c-8.1,0-15-2.5-20.4-7.4
	c-5.4-5-8.1-11.6-8.1-19.6c0-8,2.8-14.5,8.3-19.5c5.5-5,12.3-7.5,20.2-7.5c6,0,11.1,1.2,15.4,3.7c4.4,2.4,7.5,5.8,9.4,10.2l-11.2,7
	c-2.8-5.8-7.4-8.8-13.6-8.8c-4.1,0-7.6,1.4-10.4,4.1c-2.7,2.7-4,6.3-4,10.7c0,4.5,1.3,8.1,4,10.8c2.7,2.7,6.1,4,10.4,4
	c3.5,0,6.3-0.8,8.5-2.3C523.1,320.5,525,318.1,526.6,315z M596.6,312.6h-41.7c0.4,3.9,2,7,4.7,9.4c2.7,2.3,6.1,3.4,10.1,3.4
	c6.7,0,11.7-3.1,15-9.4l10.3,5.6c-5.1,10-13.6,15-25.4,15c-7.7,0-14.3-2.5-19.8-7.5c-5.4-5.1-8.1-11.6-8.1-19.5
	c0-8,2.7-14.5,8.2-19.5c5.5-5,12.3-7.5,20.3-7.5c7.7,0,14,2.4,19,7.2c4.9,4.7,7.4,10.9,7.4,18.4V312.6z M569.8,292.4
	c-3.6,0-6.7,1-9.4,3.1c-2.6,2-4.4,4.5-5.5,7.6h29c-0.7-3.4-2.2-6-4.7-7.8C576.8,293.4,573.6,292.4,569.8,292.4z M656.5,300.2v34.9
	h-13.8v-29.5c0-7.3-3.7-10.9-11-10.9c-3.6,0-6.7,1.3-9.1,4c-2.3,2.7-3.5,6.2-3.5,10.4v26h-13.8v-51.2h13.8v8.3
	c4.4-6.5,10.5-9.7,18.3-9.7c5.7,0,10.3,1.6,13.8,4.8C654.7,290.6,656.5,294.9,656.5,300.2z M661.1,294.5v-10.5h8.4v-13.8h13.8v13.8
	H695v10.5h-11.8v23.3c0,4.8,2.3,7.2,6.9,7.2c1.6,0,3.1-0.2,4.6-0.6l1.3,10.7c-2.8,1-5.8,1.4-9.2,1.4c-11.6,0-17.4-5.4-17.4-16.3
	v-25.8H661.1z"/>
</svg>
